<?xml version="1.0" encoding="UTF-8" standalone="no"?>
<svg
   xmlns:dc="http://purl.org/dc/elements/1.1/"
   xmlns:cc="http://creativecommons.org/ns#"
   xmlns:rdf="http://www.w3.org/1999/02/22-rdf-syntax-ns#"
   xmlns:svg="http://www.w3.org/2000/svg"
   xmlns="http://www.w3.org/2000/svg"
   xmlns:sodipodi="http://sodipodi.sourceforge.net/DTD/sodipodi-0.dtd"
   xmlns:inkscape="http://www.inkscape.org/namespaces/inkscape"
   version="1.1"
   x="0px"
   y="0px"
   width="184.39955mm"
   height="96.986572mm"
   viewBox="0 0 653.38423 343.65317"
   id="svg2"
   inkscape:version="1.0.1 (3bc2e813f5, 2020-09-07)"
   sodipodi:docname="lf7-1-fw01-m2-a-d-wandler.svg">
  <g
     id="g1043"
     transform="matrix(0.50165488,0,0,0.50165488,269.97868,40.284311)">
    <g
       id="g835">
      <g
         transform="matrix(0.48622722,0,0,0.48622722,213.86441,27.081363)"
         id="g10"
         style="stroke-width:1;stroke-linecap:square;stroke-linejoin:miter;stroke-miterlimit:10;stroke-dasharray:none;stroke-dashoffset:0">
        <g
           id="g12"
           style="fill:#ffffff;fill-opacity:1;fill-rule:nonzero;stroke:none">
          <path
             d="M 0,0 H 985 V 696 H 0 Z"
             id="path14"
             inkscape:connector-curvature="0" />
        </g>
        <!-- drawing style -->
      </g>
      <g
         transform="matrix(0.48622722,0,0,0.48622722,213.86441,27.081363)"
         id="g16"
         style="stroke-width:1;stroke-linecap:square;stroke-linejoin:miter;stroke-miterlimit:10;stroke-dasharray:none;stroke-dashoffset:0">
        <g
           id="g18"
           style="fill:#000000;fill-opacity:1;fill-rule:nonzero;stroke:none">
          <path
             d="m -4.125,350.34375 h 4.734375 v 1.45312 H -4.125 Z m 11.3388672,-6.29688 q -1.375,0 -2.0625,1.35157 -0.6875,1.35156 -0.6875,4.05468 0,2.70313 0.6875,4.04688 0.6875,1.34375 2.0625,1.34375 1.390625,0 2.078125,-1.34375 0.6875,-1.34375 0.6875,-4.04688 0,-2.70312 -0.6875,-4.05468 -0.6875,-1.35157 -2.078125,-1.35157 z m 0,-1.40625 q 2.203125,0 3.3671878,1.74219 1.164062,1.74219 1.164062,5.07031 0,3.3125 -1.164062,5.05469 -1.1640628,1.74219 -3.3671878,1.74219 -2.203125,0 -3.3671875,-1.74219 -1.1640625,-1.74219 -1.1640625,-5.05469 0,-3.32812 1.1640625,-5.07031 1.1640625,-1.74219 3.3671875,-1.74219 z m 7.6552738,11.125 h 1.859375 V 356 H 14.869141 Z M 20.90332,354.5 h 2.90625 v -10 l -3.15625,0.625 v -1.60938 l 3.125,-0.64062 h 1.78125 V 354.5 h 2.90625 v 1.5 h -7.5625 z"
             id="path20"
             inkscape:connector-curvature="0" />
        </g>
        <!-- drawing style -->
      </g>
      <g
         transform="matrix(0.48622722,0,0,0.48622722,213.86441,27.081363)"
         id="g22"
         style="stroke-width:1;stroke-linecap:square;stroke-linejoin:miter;stroke-miterlimit:10;stroke-dasharray:none;stroke-dashoffset:0">
        <g
           id="g24"
           style="fill:none;stroke:#000000;stroke-linecap:butt;stroke-opacity:1">
          <path
             d="m 10.748321,334.82702 v 4"
             id="path26"
             inkscape:connector-curvature="0" />
        </g>
        <!-- drawing style -->
      </g>
      <g
         transform="matrix(0.48622722,0,0,0.48622722,213.86441,27.081363)"
         id="g28"
         style="stroke-width:1;stroke-linecap:square;stroke-linejoin:miter;stroke-miterlimit:10;stroke-dasharray:none;stroke-dashoffset:0">
        <g
           id="g30"
           style="fill:#000000;fill-opacity:1;fill-rule:nonzero;stroke:none">
          <path
             d="m 80.71875,344.04687 q -1.375,0 -2.0625,1.35157 -0.6875,1.35156 -0.6875,4.05468 0,2.70313 0.6875,4.04688 0.6875,1.34375 2.0625,1.34375 1.390625,0 2.078125,-1.34375 0.6875,-1.34375 0.6875,-4.04688 0,-2.70312 -0.6875,-4.05468 -0.6875,-1.35157 -2.078125,-1.35157 z m 0,-1.40625 q 2.203125,0 3.367187,1.74219 1.164063,1.74219 1.164063,5.07031 0,3.3125 -1.164063,5.05469 -1.164062,1.74219 -3.367187,1.74219 -2.203125,0 -3.367188,-1.74219 -1.164062,-1.74219 -1.164062,-5.05469 0,-3.32812 1.164062,-5.07031 1.164063,-1.74219 3.367188,-1.74219 z"
             id="path32"
             inkscape:connector-curvature="0" />
        </g>
        <!-- drawing style -->
      </g>
      <g
         transform="matrix(0.48622722,0,0,0.48622722,213.86441,27.081363)"
         id="g34"
         style="stroke-width:1;stroke-linecap:square;stroke-linejoin:miter;stroke-miterlimit:10;stroke-dasharray:none;stroke-dashoffset:0">
        <g
           id="g36"
           style="fill:none;stroke:#000000;stroke-linecap:butt;stroke-opacity:1">
          <path
             d="m 69.047107,334.82702 v 4"
             id="path38"
             inkscape:connector-curvature="0" />
        </g>
        <!-- drawing style -->
      </g>
      <g
         transform="matrix(0.48622722,0,0,0.48622722,213.86441,27.081363)"
         id="g40"
         style="stroke-width:1;stroke-linecap:square;stroke-linejoin:miter;stroke-miterlimit:10;stroke-dasharray:none;stroke-dashoffset:0">
        <g
           id="g42"
           style="fill:#000000;fill-opacity:1;fill-rule:nonzero;stroke:none">
          <path
             d="m 119.71875,344.04687 q -1.375,0 -2.0625,1.35157 -0.6875,1.35156 -0.6875,4.05468 0,2.70313 0.6875,4.04688 0.6875,1.34375 2.0625,1.34375 1.39063,0 2.07813,-1.34375 0.6875,-1.34375 0.6875,-4.04688 0,-2.70312 -0.6875,-4.05468 -0.6875,-1.35157 -2.07813,-1.35157 z m 0,-1.40625 q 2.20313,0 3.36719,1.74219 1.16406,1.74219 1.16406,5.07031 0,3.3125 -1.16406,5.05469 -1.16406,1.74219 -3.36719,1.74219 -2.20312,0 -3.36719,-1.74219 -1.16406,-1.74219 -1.16406,-5.05469 0,-3.32812 1.16406,-5.07031 1.16407,-1.74219 3.36719,-1.74219 z m 7.65527,11.125 h 1.85938 V 356 h -1.85938 z M 133.4082,354.5 h 2.90625 v -10 l -3.15625,0.625 v -1.60938 l 3.125,-0.64062 h 1.78125 V 354.5 h 2.90625 v 1.5 h -7.5625 z"
             id="path44"
             inkscape:connector-curvature="0" />
        </g>
        <!-- drawing style -->
      </g>
      <g
         transform="matrix(0.48622722,0,0,0.48622722,213.86441,27.081363)"
         id="g46"
         style="stroke-width:1;stroke-linecap:square;stroke-linejoin:miter;stroke-miterlimit:10;stroke-dasharray:none;stroke-dashoffset:0">
        <g
           id="g48"
           style="fill:none;stroke:#000000;stroke-linecap:butt;stroke-opacity:1">
          <path
             d="m 127.34589,334.82702 v 4"
             id="path50"
             inkscape:connector-curvature="0" />
        </g>
        <!-- drawing style -->
      </g>
      <g
         transform="matrix(0.48622722,0,0,0.48622722,213.86441,27.081363)"
         id="g52"
         style="stroke-width:1;stroke-linecap:square;stroke-linejoin:miter;stroke-miterlimit:10;stroke-dasharray:none;stroke-dashoffset:0">
        <g
           id="g54"
           style="fill:#000000;fill-opacity:1;fill-rule:nonzero;stroke:none">
          <path
             d="m 177.71875,344.04687 q -1.375,0 -2.0625,1.35157 -0.6875,1.35156 -0.6875,4.05468 0,2.70313 0.6875,4.04688 0.6875,1.34375 2.0625,1.34375 1.39062,0 2.07812,-1.34375 0.6875,-1.34375 0.6875,-4.04688 0,-2.70312 -0.6875,-4.05468 -0.6875,-1.35157 -2.07812,-1.35157 z m 0,-1.40625 q 2.20312,0 3.36719,1.74219 1.16406,1.74219 1.16406,5.07031 0,3.3125 -1.16406,5.05469 -1.16407,1.74219 -3.36719,1.74219 -2.20313,0 -3.36719,-1.74219 -1.16406,-1.74219 -1.16406,-5.05469 0,-3.32812 1.16406,-5.07031 1.16406,-1.74219 3.36719,-1.74219 z m 7.65527,11.125 h 1.85938 V 356 h -1.85938 z m 7.25293,0.73438 h 6.20313 v 1.5 h -8.34375 v -1.5 q 1.01562,-1.04688 2.75781,-2.80469 1.74219,-1.75781 2.19531,-2.27344 0.85938,-0.95312 1.19532,-1.61718 0.33593,-0.66407 0.33593,-1.30469 0,-1.04688 -0.73437,-1.70313 -0.73438,-0.65625 -1.90625,-0.65625 -0.84375,0 -1.76563,0.28907 -0.92187,0.28906 -1.98437,0.86718 v -1.78125 q 1.07812,-0.4375 2.00781,-0.65625 0.92969,-0.21875 1.69531,-0.21875 2.04688,0 3.25782,1.01563 1.21093,1.01562 1.21093,2.73437 0,0.79688 -0.30468,1.52344 -0.30469,0.72656 -1.10157,1.71094 -0.21875,0.25 -1.39843,1.46875 -1.17969,1.21875 -3.32032,3.40625 z"
             id="path56"
             inkscape:connector-curvature="0" />
        </g>
        <!-- drawing style -->
      </g>
      <g
         transform="matrix(0.48622722,0,0,0.48622722,213.86441,27.081363)"
         id="g58"
         style="stroke-width:1;stroke-linecap:square;stroke-linejoin:miter;stroke-miterlimit:10;stroke-dasharray:none;stroke-dashoffset:0">
        <g
           id="g60"
           style="fill:none;stroke:#000000;stroke-linecap:butt;stroke-opacity:1">
          <path
             d="m 185.64468,334.82702 v 4"
             id="path62"
             inkscape:connector-curvature="0" />
        </g>
        <!-- drawing style -->
      </g>
      <g
         transform="matrix(0.48622722,0,0,0.48622722,213.86441,27.081363)"
         id="g64"
         style="stroke-width:1;stroke-linecap:square;stroke-linejoin:miter;stroke-miterlimit:10;stroke-dasharray:none;stroke-dashoffset:0">
        <g
           id="g66"
           style="fill:#000000;fill-opacity:1;fill-rule:nonzero;stroke:none">
          <path
             d="m 235.71875,344.04687 q -1.375,0 -2.0625,1.35157 -0.6875,1.35156 -0.6875,4.05468 0,2.70313 0.6875,4.04688 0.6875,1.34375 2.0625,1.34375 1.39062,0 2.07812,-1.34375 0.6875,-1.34375 0.6875,-4.04688 0,-2.70312 -0.6875,-4.05468 -0.6875,-1.35157 -2.07812,-1.35157 z m 0,-1.40625 q 2.20312,0 3.36719,1.74219 1.16406,1.74219 1.16406,5.07031 0,3.3125 -1.16406,5.05469 -1.16407,1.74219 -3.36719,1.74219 -2.20313,0 -3.36719,-1.74219 -1.16406,-1.74219 -1.16406,-5.05469 0,-3.32812 1.16406,-5.07031 1.16406,-1.74219 3.36719,-1.74219 z m 7.65527,11.125 h 1.85938 V 356 h -1.85938 z m 11.09668,-4.84375 q 1.28125,0.28125 2,1.14063 0.71875,0.85937 0.71875,2.125 0,1.9375 -1.33593,3 -1.33594,1.0625 -3.80469,1.0625 -0.82813,0 -1.70313,-0.16406 -0.875,-0.16407 -1.79687,-0.47657 v -1.71875 q 0.73437,0.4375 1.61719,0.65625 0.88281,0.21875 1.83593,0.21875 1.67188,0 2.54688,-0.66406 0.875,-0.66406 0.875,-1.91406 0,-1.15625 -0.8125,-1.8125 -0.8125,-0.65625 -2.26563,-0.65625 h -1.53125 V 348.25 h 1.59375 q 1.3125,0 2.00782,-0.52344 0.69531,-0.52344 0.69531,-1.50781 0,-1 -0.71875,-1.53906 -0.71875,-0.53907 -2.04688,-0.53907 -0.73437,0 -1.57031,0.15625 -0.83594,0.15625 -1.83594,0.48438 v -1.57813 q 1.01563,-0.28125 1.89844,-0.42187 0.88281,-0.14063 1.66406,-0.14063 2.01563,0 3.19532,0.92188 1.17968,0.92187 1.17968,2.48437 0,1.07813 -0.625,1.83594 -0.625,0.75781 -1.78125,1.03906 z"
             id="path68"
             inkscape:connector-curvature="0" />
        </g>
        <!-- drawing style -->
      </g>
      <g
         transform="matrix(0.48622722,0,0,0.48622722,213.86441,27.081363)"
         id="g70"
         style="stroke-width:1;stroke-linecap:square;stroke-linejoin:miter;stroke-miterlimit:10;stroke-dasharray:none;stroke-dashoffset:0">
        <g
           id="g72"
           style="fill:none;stroke:#000000;stroke-linecap:butt;stroke-opacity:1">
          <path
             d="m 243.94346,334.82702 v 4"
             id="path74"
             inkscape:connector-curvature="0" />
        </g>
        <!-- drawing style -->
      </g>
      <g
         transform="matrix(0.48622722,0,0,0.48622722,213.86441,27.081363)"
         id="g76"
         style="stroke-width:1;stroke-linecap:square;stroke-linejoin:miter;stroke-miterlimit:10;stroke-dasharray:none;stroke-dashoffset:0">
        <g
           id="g78"
           style="fill:#000000;fill-opacity:1;fill-rule:nonzero;stroke:none">
          <path
             d="m 293.71875,344.04687 q -1.375,0 -2.0625,1.35157 -0.6875,1.35156 -0.6875,4.05468 0,2.70313 0.6875,4.04688 0.6875,1.34375 2.0625,1.34375 1.39062,0 2.07812,-1.34375 0.6875,-1.34375 0.6875,-4.04688 0,-2.70312 -0.6875,-4.05468 -0.6875,-1.35157 -2.07812,-1.35157 z m 0,-1.40625 q 2.20312,0 3.36719,1.74219 1.16406,1.74219 1.16406,5.07031 0,3.3125 -1.16406,5.05469 -1.16407,1.74219 -3.36719,1.74219 -2.20313,0 -3.36719,-1.74219 -1.16406,-1.74219 -1.16406,-5.05469 0,-3.32812 1.16406,-5.07031 1.16406,-1.74219 3.36719,-1.74219 z m 7.65527,11.125 h 1.85938 V 356 h -1.85938 z m 10.59668,-9.34375 -4.46875,7 h 4.46875 z m -0.45312,-1.54687 h 2.21875 v 8.54687 h 1.875 v 1.48438 h -1.875 V 356 h -1.76563 v -3.09375 h -5.92187 v -1.71875 z"
             id="path80"
             inkscape:connector-curvature="0" />
        </g>
        <!-- drawing style -->
      </g>
      <g
         transform="matrix(0.48622722,0,0,0.48622722,213.86441,27.081363)"
         id="g82"
         style="stroke-width:1;stroke-linecap:square;stroke-linejoin:miter;stroke-miterlimit:10;stroke-dasharray:none;stroke-dashoffset:0">
        <g
           id="g84"
           style="fill:none;stroke:#000000;stroke-linecap:butt;stroke-opacity:1">
          <path
             d="m 302.24225,334.82702 v 4"
             id="path86"
             inkscape:connector-curvature="0" />
        </g>
        <!-- drawing style -->
      </g>
      <g
         transform="matrix(0.48622722,0,0,0.48622722,213.86441,27.081363)"
         id="g88"
         style="stroke-width:1;stroke-linecap:square;stroke-linejoin:miter;stroke-miterlimit:10;stroke-dasharray:none;stroke-dashoffset:0">
        <g
           id="g90"
           style="fill:#000000;fill-opacity:1;fill-rule:nonzero;stroke:none">
          <path
             d="m 352.71875,344.04687 q -1.375,0 -2.0625,1.35157 -0.6875,1.35156 -0.6875,4.05468 0,2.70313 0.6875,4.04688 0.6875,1.34375 2.0625,1.34375 1.39062,0 2.07812,-1.34375 0.6875,-1.34375 0.6875,-4.04688 0,-2.70312 -0.6875,-4.05468 -0.6875,-1.35157 -2.07812,-1.35157 z m 0,-1.40625 q 2.20312,0 3.36719,1.74219 1.16406,1.74219 1.16406,5.07031 0,3.3125 -1.16406,5.05469 -1.16407,1.74219 -3.36719,1.74219 -2.20313,0 -3.36719,-1.74219 -1.16406,-1.74219 -1.16406,-5.05469 0,-3.32812 1.16406,-5.07031 1.16406,-1.74219 3.36719,-1.74219 z m 7.65527,11.125 h 1.85938 V 356 h -1.85938 z m 5.73731,-10.89062 h 6.96875 v 1.5 h -5.34375 v 3.21875 q 0.39062,-0.14063 0.78125,-0.20313 0.39062,-0.0625 0.76562,-0.0625 2.20313,0 3.48438,1.20313 1.28125,1.20312 1.28125,3.26562 0,2.10938 -1.3125,3.28125 -1.3125,1.17188 -3.71875,1.17188 -0.82813,0 -1.6875,-0.14063 -0.85938,-0.14062 -1.76563,-0.42187 v -1.78125 q 0.79688,0.4375 1.64063,0.64844 0.84375,0.21093 1.78125,0.21093 1.51562,0 2.40625,-0.80468 0.89062,-0.80469 0.89062,-2.16407 0,-1.375 -0.89062,-2.17968 -0.89063,-0.80469 -2.40625,-0.80469 -0.71875,0 -1.42188,0.16406 -0.70312,0.16406 -1.45312,0.49219 z"
             id="path92"
             inkscape:connector-curvature="0" />
        </g>
        <!-- drawing style -->
      </g>
      <g
         transform="matrix(0.48622722,0,0,0.48622722,213.86441,27.081363)"
         id="g94"
         style="stroke-width:1;stroke-linecap:square;stroke-linejoin:miter;stroke-miterlimit:10;stroke-dasharray:none;stroke-dashoffset:0">
        <g
           id="g96"
           style="fill:none;stroke:#000000;stroke-linecap:butt;stroke-opacity:1">
          <path
             d="m 360.54104,334.82702 v 4"
             id="path98"
             inkscape:connector-curvature="0" />
        </g>
        <!-- drawing style -->
      </g>
      <g
         transform="matrix(0.48622722,0,0,0.48622722,213.86441,27.081363)"
         id="g100"
         style="stroke-width:1;stroke-linecap:square;stroke-linejoin:miter;stroke-miterlimit:10;stroke-dasharray:none;stroke-dashoffset:0">
        <g
           id="g102"
           style="fill:#000000;fill-opacity:1;fill-rule:nonzero;stroke:none">
          <path
             d="m 410.71875,344.04687 q -1.375,0 -2.0625,1.35157 -0.6875,1.35156 -0.6875,4.05468 0,2.70313 0.6875,4.04688 0.6875,1.34375 2.0625,1.34375 1.39062,0 2.07812,-1.34375 0.6875,-1.34375 0.6875,-4.04688 0,-2.70312 -0.6875,-4.05468 -0.6875,-1.35157 -2.07812,-1.35157 z m 0,-1.40625 q 2.20312,0 3.36719,1.74219 1.16406,1.74219 1.16406,5.07031 0,3.3125 -1.16406,5.05469 -1.16407,1.74219 -3.36719,1.74219 -2.20313,0 -3.36719,-1.74219 -1.16406,-1.74219 -1.16406,-5.05469 0,-3.32812 1.16406,-5.07031 1.16406,-1.74219 3.36719,-1.74219 z m 7.65527,11.125 h 1.85938 V 356 h -1.85938 z m 9.73731,-5.03125 q -1.1875,0 -1.89063,0.8125 -0.70312,0.8125 -0.70312,2.25 0,1.40625 0.70312,2.22657 0.70313,0.82031 1.89063,0.82031 1.20312,0 1.89844,-0.82031 0.69531,-0.82032 0.69531,-2.22657 0,-1.4375 -0.69531,-2.25 -0.69532,-0.8125 -1.89844,-0.8125 z m 3.53125,-5.5625 v 1.60938 q -0.67188,-0.3125 -1.35156,-0.47656 -0.67969,-0.16407 -1.35157,-0.16407 -1.75,0 -2.67968,1.17969 -0.92969,1.17969 -1.05469,3.58594 0.51562,-0.76563 1.29687,-1.17188 0.78125,-0.40625 1.71875,-0.40625 1.98438,0 3.125,1.19532 1.14063,1.19531 1.14063,3.27343 0,2.01563 -1.19531,3.23438 -1.19532,1.21875 -3.17969,1.21875 -2.26563,0 -3.47656,-1.74219 -1.21094,-1.74219 -1.21094,-5.05469 0,-3.10937 1.47656,-4.96093 1.47656,-1.85157 3.97656,-1.85157 0.65625,0 1.34375,0.13282 0.6875,0.13281 1.42188,0.39843 z"
             id="path104"
             inkscape:connector-curvature="0" />
        </g>
        <!-- drawing style -->
      </g>
      <g
         transform="matrix(0.48622722,0,0,0.48622722,213.86441,27.081363)"
         id="g106"
         style="stroke-width:1;stroke-linecap:square;stroke-linejoin:miter;stroke-miterlimit:10;stroke-dasharray:none;stroke-dashoffset:0">
        <g
           id="g108"
           style="fill:none;stroke:#000000;stroke-linecap:butt;stroke-opacity:1">
          <path
             d="m 418.83982,334.82702 v 4"
             id="path110"
             inkscape:connector-curvature="0" />
        </g>
        <!-- drawing style -->
      </g>
      <g
         transform="matrix(0.48622722,0,0,0.48622722,213.86441,27.081363)"
         id="g112"
         style="stroke-width:1;stroke-linecap:square;stroke-linejoin:miter;stroke-miterlimit:10;stroke-dasharray:none;stroke-dashoffset:0">
        <g
           id="g114"
           style="fill:#000000;fill-opacity:1;fill-rule:nonzero;stroke:none">
          <path
             d="m 468.71875,344.04687 q -1.375,0 -2.0625,1.35157 -0.6875,1.35156 -0.6875,4.05468 0,2.70313 0.6875,4.04688 0.6875,1.34375 2.0625,1.34375 1.39062,0 2.07812,-1.34375 0.6875,-1.34375 0.6875,-4.04688 0,-2.70312 -0.6875,-4.05468 -0.6875,-1.35157 -2.07812,-1.35157 z m 0,-1.40625 q 2.20312,0 3.36719,1.74219 1.16406,1.74219 1.16406,5.07031 0,3.3125 -1.16406,5.05469 -1.16407,1.74219 -3.36719,1.74219 -2.20313,0 -3.36719,-1.74219 -1.16406,-1.74219 -1.16406,-5.05469 0,-3.32812 1.16406,-5.07031 1.16406,-1.74219 3.36719,-1.74219 z m 7.65527,11.125 h 1.85938 V 356 h -1.85938 z M 481.6582,342.875 h 8.4375 v 0.76562 L 485.33008,356 h -1.85938 l 4.48438,-11.625 h -6.29688 z"
             id="path116"
             inkscape:connector-curvature="0" />
        </g>
        <!-- drawing style -->
      </g>
      <g
         transform="matrix(0.48622722,0,0,0.48622722,213.86441,27.081363)"
         id="g118"
         style="stroke-width:1;stroke-linecap:square;stroke-linejoin:miter;stroke-miterlimit:10;stroke-dasharray:none;stroke-dashoffset:0">
        <g
           id="g120"
           style="fill:none;stroke:#000000;stroke-linecap:butt;stroke-opacity:1">
          <path
             d="m 477.13861,334.82702 v 4"
             id="path122"
             inkscape:connector-curvature="0" />
        </g>
        <!-- drawing style -->
      </g>
      <g
         transform="matrix(0.48622722,0,0,0.48622722,213.86441,27.081363)"
         id="g124"
         style="stroke-width:1;stroke-linecap:square;stroke-linejoin:miter;stroke-miterlimit:10;stroke-dasharray:none;stroke-dashoffset:0">
        <g
           id="g126"
           style="fill:#000000;fill-opacity:1;fill-rule:nonzero;stroke:none">
          <path
             d="m 527.71875,344.04687 q -1.375,0 -2.0625,1.35157 -0.6875,1.35156 -0.6875,4.05468 0,2.70313 0.6875,4.04688 0.6875,1.34375 2.0625,1.34375 1.39062,0 2.07812,-1.34375 0.6875,-1.34375 0.6875,-4.04688 0,-2.70312 -0.6875,-4.05468 -0.6875,-1.35157 -2.07812,-1.35157 z m 0,-1.40625 q 2.20312,0 3.36719,1.74219 1.16406,1.74219 1.16406,5.07031 0,3.3125 -1.16406,5.05469 -1.16407,1.74219 -3.36719,1.74219 -2.20313,0 -3.36719,-1.74219 -1.16406,-1.74219 -1.16406,-5.05469 0,-3.32812 1.16406,-5.07031 1.16406,-1.74219 3.36719,-1.74219 z m 7.65527,11.125 h 1.85938 V 356 h -1.85938 z m 9.51856,-4 q -1.26563,0 -1.99219,0.67969 -0.72656,0.67969 -0.72656,1.86719 0,1.1875 0.72656,1.85937 0.72656,0.67188 1.99219,0.67188 1.26562,0 2,-0.67969 0.73437,-0.67969 0.73437,-1.85156 0,-1.1875 -0.72656,-1.86719 -0.72656,-0.67969 -2.00781,-0.67969 z m -1.76563,-0.75 q -1.15625,-0.28125 -1.78906,-1.0625 -0.63281,-0.78125 -0.63281,-1.90625 0,-1.57812 1.11719,-2.49218 1.11718,-0.91407 3.07031,-0.91407 1.96875,0 3.08594,0.91407 1.11718,0.91406 1.11718,2.49218 0,1.125 -0.64062,1.90625 -0.64063,0.78125 -1.78125,1.0625 1.29687,0.29688 2.00781,1.16407 0.71094,0.86718 0.71094,2.13281 0,1.90625 -1.16406,2.92187 -1.16407,1.01563 -3.33594,1.01563 -2.17188,0 -3.33594,-1.01563 -1.16406,-1.01562 -1.16406,-2.92187 0,-1.26563 0.71875,-2.13281 0.71875,-0.86719 2.01562,-1.16407 z m -0.65625,-2.8125 q 0,1.03125 0.64063,1.60157 0.64062,0.57031 1.78125,0.57031 1.14062,0 1.78906,-0.57031 0.64844,-0.57032 0.64844,-1.60157 0,-1.01562 -0.64844,-1.58593 -0.64844,-0.57032 -1.78906,-0.57032 -1.14063,0 -1.78125,0.57032 -0.64063,0.57031 -0.64063,1.58593 z"
             id="path128"
             inkscape:connector-curvature="0" />
        </g>
        <!-- drawing style -->
      </g>
      <g
         transform="matrix(0.48622722,0,0,0.48622722,213.86441,27.081363)"
         id="g130"
         style="stroke-width:1;stroke-linecap:square;stroke-linejoin:miter;stroke-miterlimit:10;stroke-dasharray:none;stroke-dashoffset:0">
        <g
           id="g132"
           style="fill:none;stroke:#000000;stroke-linecap:butt;stroke-opacity:1">
          <path
             d="m 535.43739,334.82702 v 4"
             id="path134"
             inkscape:connector-curvature="0" />
        </g>
        <!-- drawing style -->
      </g>
      <g
         transform="matrix(0.48622722,0,0,0.48622722,213.86441,27.081363)"
         id="g136"
         style="stroke-width:1;stroke-linecap:square;stroke-linejoin:miter;stroke-miterlimit:10;stroke-dasharray:none;stroke-dashoffset:0">
        <g
           id="g138"
           style="fill:#000000;fill-opacity:1;fill-rule:nonzero;stroke:none">
          <path
             d="m 585.71875,344.04687 q -1.375,0 -2.0625,1.35157 -0.6875,1.35156 -0.6875,4.05468 0,2.70313 0.6875,4.04688 0.6875,1.34375 2.0625,1.34375 1.39062,0 2.07812,-1.34375 0.6875,-1.34375 0.6875,-4.04688 0,-2.70312 -0.6875,-4.05468 -0.6875,-1.35157 -2.07812,-1.35157 z m 0,-1.40625 q 2.20312,0 3.36719,1.74219 1.16406,1.74219 1.16406,5.07031 0,3.3125 -1.16406,5.05469 -1.16407,1.74219 -3.36719,1.74219 -2.20313,0 -3.36719,-1.74219 -1.16406,-1.74219 -1.16406,-5.05469 0,-3.32812 1.16406,-5.07031 1.16406,-1.74219 3.36719,-1.74219 z m 7.65527,11.125 h 1.85938 V 356 h -1.85938 z m 5.78418,1.96875 v -1.625 q 0.65625,0.3125 1.34375,0.48438 0.6875,0.17187 1.34375,0.17187 1.76563,0 2.6875,-1.1875 0.92188,-1.1875 1.0625,-3.59375 -0.51562,0.76563 -1.29687,1.16407 -0.78125,0.39843 -1.73438,0.39843 -1.96875,0 -3.10937,-1.1875 -1.14063,-1.1875 -1.14063,-3.25 0,-2.03125 1.19532,-3.25 1.19531,-1.21875 3.17968,-1.21875 2.26563,0 3.46875,1.74219 1.20313,1.74219 1.20313,5.07031 0,3.09375 -1.46875,4.94532 -1.46875,1.85156 -3.96875,1.85156 -0.65625,0 -1.34375,-0.13281 -0.6875,-0.13282 -1.42188,-0.38282 z m 3.53125,-5.57812 q 1.1875,0 1.89063,-0.8125 0.70312,-0.8125 0.70312,-2.23438 0,-1.42187 -0.70312,-2.24218 -0.70313,-0.82032 -1.89063,-0.82032 -1.20312,0 -1.89843,0.82032 -0.69532,0.82031 -0.69532,2.24218 0,1.42188 0.69532,2.23438 0.69531,0.8125 1.89843,0.8125 z"
             id="path140"
             inkscape:connector-curvature="0" />
        </g>
        <!-- drawing style -->
      </g>
      <g
         transform="matrix(0.48622722,0,0,0.48622722,213.86441,27.081363)"
         id="g142"
         style="stroke-width:1;stroke-linecap:square;stroke-linejoin:miter;stroke-miterlimit:10;stroke-dasharray:none;stroke-dashoffset:0">
        <g
           id="g144"
           style="fill:none;stroke:#000000;stroke-linecap:butt;stroke-opacity:1">
          <path
             d="m 593.73618,334.82702 v 4"
             id="path146"
             inkscape:connector-curvature="0" />
        </g>
        <!-- drawing style -->
      </g>
      <g
         transform="matrix(0.48622722,0,0,0.48622722,213.86441,27.081363)"
         id="g154"
         style="stroke-width:1;stroke-linecap:square;stroke-linejoin:miter;stroke-miterlimit:10;stroke-dasharray:none;stroke-dashoffset:0">
        <g
           id="g156"
           style="fill:none;stroke:#000000;stroke-linecap:butt;stroke-opacity:1">
          <path
             d="m 652.03497,334.82702 v 4"
             id="path158"
             inkscape:connector-curvature="0" />
        </g>
        <!-- drawing style -->
      </g>
      <g
         transform="matrix(0.48622722,0,0,0.48622722,213.86441,27.081363)"
         id="g160"
         style="stroke-width:1;stroke-linecap:square;stroke-linejoin:miter;stroke-miterlimit:10;stroke-dasharray:none;stroke-dashoffset:0">
        <g
           id="g162"
           style="fill:#000000;fill-opacity:1;fill-rule:nonzero;stroke:none">
          <path
             d="m 699.23437,354.5 h 2.90625 v -10 l -3.15625,0.625 v -1.60938 l 3.125,-0.64062 h 1.78125 V 354.5 h 2.90625 v 1.5 h -7.5625 z m 11.13965,-0.73438 h 1.85938 V 356 h -1.85938 z M 716.4082,354.5 h 2.90625 v -10 l -3.15625,0.625 v -1.60938 l 3.125,-0.64062 h 1.78125 V 354.5 h 2.90625 v 1.5 h -7.5625 z"
             id="path164"
             inkscape:connector-curvature="0" />
        </g>
        <!-- drawing style -->
      </g>
      <g
         transform="matrix(0.48622722,0,0,0.48622722,213.86441,27.081363)"
         id="g166"
         style="stroke-width:1;stroke-linecap:square;stroke-linejoin:miter;stroke-miterlimit:10;stroke-dasharray:none;stroke-dashoffset:0">
        <g
           id="g168"
           style="fill:none;stroke:#000000;stroke-linecap:butt;stroke-opacity:1">
          <path
             d="m 710.33375,334.82702 v 4"
             id="path170"
             inkscape:connector-curvature="0" />
        </g>
        <!-- drawing style -->
      </g>
      <g
         transform="matrix(0.48622722,0,0,0.48622722,213.86441,27.081363)"
         id="g172"
         style="stroke-width:1;stroke-linecap:square;stroke-linejoin:miter;stroke-miterlimit:10;stroke-dasharray:none;stroke-dashoffset:0">
        <g
           id="g174"
           style="fill:#000000;fill-opacity:1;fill-rule:nonzero;stroke:none">
          <path
             d="m 757.23437,354.5 h 2.90625 v -10 l -3.15625,0.625 v -1.60938 l 3.125,-0.64062 h 1.78125 V 354.5 h 2.90625 v 1.5 h -7.5625 z m 11.13965,-0.73438 h 1.85938 V 356 h -1.85938 z m 7.25293,0.73438 h 6.20313 v 1.5 h -8.34375 v -1.5 q 1.01562,-1.04688 2.75781,-2.80469 1.74219,-1.75781 2.19531,-2.27344 0.85938,-0.95312 1.19532,-1.61718 0.33593,-0.66407 0.33593,-1.30469 0,-1.04688 -0.73437,-1.70313 -0.73438,-0.65625 -1.90625,-0.65625 -0.84375,0 -1.76563,0.28907 -0.92187,0.28906 -1.98437,0.86718 v -1.78125 q 1.07812,-0.4375 2.00781,-0.65625 0.92969,-0.21875 1.69531,-0.21875 2.04688,0 3.25782,1.01563 1.21093,1.01562 1.21093,2.73437 0,0.79688 -0.30468,1.52344 -0.30469,0.72656 -1.10157,1.71094 -0.21875,0.25 -1.39843,1.46875 -1.17969,1.21875 -3.32032,3.40625 z"
             id="path176"
             inkscape:connector-curvature="0" />
        </g>
        <!-- drawing style -->
      </g>
      <g
         transform="matrix(0.48622722,0,0,0.48622722,213.86441,27.081363)"
         id="g178"
         style="stroke-width:1;stroke-linecap:square;stroke-linejoin:miter;stroke-miterlimit:10;stroke-dasharray:none;stroke-dashoffset:0">
        <g
           id="g180"
           style="fill:none;stroke:#000000;stroke-linecap:butt;stroke-opacity:1">
          <path
             d="m 768.63254,334.82702 v 4"
             id="path182"
             inkscape:connector-curvature="0" />
        </g>
        <!-- drawing style -->
      </g>
      <g
         transform="matrix(0.48622722,0,0,0.48622722,213.86441,27.081363)"
         id="g184"
         style="stroke-width:1;stroke-linecap:square;stroke-linejoin:miter;stroke-miterlimit:10;stroke-dasharray:none;stroke-dashoffset:0">
        <g
           id="g186"
           style="fill:#000000;fill-opacity:1;fill-rule:nonzero;stroke:none">
          <path
             d="m 815.23437,354.5 h 2.90625 v -10 l -3.15625,0.625 v -1.60938 l 3.125,-0.64062 h 1.78125 V 354.5 h 2.90625 v 1.5 h -7.5625 z m 11.13965,-0.73438 h 1.85938 V 356 h -1.85938 z m 11.09668,-4.84375 q 1.28125,0.28125 2,1.14063 0.71875,0.85937 0.71875,2.125 0,1.9375 -1.33593,3 -1.33594,1.0625 -3.80469,1.0625 -0.82813,0 -1.70313,-0.16406 -0.875,-0.16407 -1.79687,-0.47657 v -1.71875 q 0.73437,0.4375 1.61719,0.65625 0.88281,0.21875 1.83593,0.21875 1.67188,0 2.54688,-0.66406 0.875,-0.66406 0.875,-1.91406 0,-1.15625 -0.8125,-1.8125 -0.8125,-0.65625 -2.26563,-0.65625 h -1.53125 V 348.25 h 1.59375 q 1.3125,0 2.00782,-0.52344 0.69531,-0.52344 0.69531,-1.50781 0,-1 -0.71875,-1.53906 -0.71875,-0.53907 -2.04688,-0.53907 -0.73437,0 -1.57031,0.15625 -0.83594,0.15625 -1.83594,0.48438 v -1.57813 q 1.01563,-0.28125 1.89844,-0.42187 0.88281,-0.14063 1.66406,-0.14063 2.01563,0 3.19532,0.92188 1.17968,0.92187 1.17968,2.48437 0,1.07813 -0.625,1.83594 -0.625,0.75781 -1.78125,1.03906 z"
             id="path188"
             inkscape:connector-curvature="0" />
        </g>
        <!-- drawing style -->
      </g>
      <g
         transform="matrix(0.48622722,0,0,0.48622722,213.86441,27.081363)"
         id="g190"
         style="stroke-width:1;stroke-linecap:square;stroke-linejoin:miter;stroke-miterlimit:10;stroke-dasharray:none;stroke-dashoffset:0">
        <g
           id="g192"
           style="fill:none;stroke:#000000;stroke-linecap:butt;stroke-opacity:1">
          <path
             d="m 826.93132,334.82702 v 4"
             id="path194"
             inkscape:connector-curvature="0" />
        </g>
        <!-- drawing style -->
      </g>
      <g
         transform="matrix(0.48622722,0,0,0.48622722,213.86441,27.081363)"
         id="g196"
         style="stroke-width:1;stroke-linecap:square;stroke-linejoin:miter;stroke-miterlimit:10;stroke-dasharray:none;stroke-dashoffset:0">
        <g
           id="g198"
           style="fill:#000000;fill-opacity:1;fill-rule:nonzero;stroke:none">
          <path
             d="m 873.23437,354.5 h 2.90625 v -10 l -3.15625,0.625 v -1.60938 l 3.125,-0.64062 h 1.78125 V 354.5 h 2.90625 v 1.5 h -7.5625 z m 11.13965,-0.73438 h 1.85938 V 356 h -1.85938 z m 10.59668,-9.34375 -4.46875,7 h 4.46875 z m -0.45312,-1.54687 h 2.21875 v 8.54687 h 1.875 v 1.48438 h -1.875 V 356 h -1.76563 v -3.09375 h -5.92187 v -1.71875 z"
             id="path200"
             inkscape:connector-curvature="0" />
        </g>
        <!-- drawing style -->
      </g>
      <g
         transform="matrix(0.48622722,0,0,0.48622722,213.86441,27.081363)"
         id="g202"
         style="stroke-width:1;stroke-linecap:square;stroke-linejoin:miter;stroke-miterlimit:10;stroke-dasharray:none;stroke-dashoffset:0">
        <g
           id="g204"
           style="fill:none;stroke:#000000;stroke-linecap:butt;stroke-opacity:1">
          <path
             d="m 885.23011,334.82702 v 4"
             id="path206"
             inkscape:connector-curvature="0" />
        </g>
        <!-- drawing style -->
      </g>
      <g
         transform="matrix(0.48622722,0,0,0.48622722,213.86441,27.081363)"
         id="g208"
         style="stroke-width:1;stroke-linecap:square;stroke-linejoin:miter;stroke-miterlimit:10;stroke-dasharray:none;stroke-dashoffset:0">
        <g
           id="g210"
           style="fill:#000000;fill-opacity:1;fill-rule:nonzero;stroke:none">
          <path
             d="m 932.23437,354.5 h 2.90625 v -10 l -3.15625,0.625 v -1.60938 l 3.125,-0.64062 h 1.78125 V 354.5 h 2.90625 v 1.5 h -7.5625 z m 11.13965,-0.73438 h 1.85938 V 356 h -1.85938 z m 5.73731,-10.89062 h 6.96875 v 1.5 h -5.34375 v 3.21875 q 0.39062,-0.14063 0.78125,-0.20313 0.39062,-0.0625 0.76562,-0.0625 2.20313,0 3.48438,1.20313 1.28125,1.20312 1.28125,3.26562 0,2.10938 -1.3125,3.28125 -1.3125,1.17188 -3.71875,1.17188 -0.82813,0 -1.6875,-0.14063 -0.85938,-0.14062 -1.76563,-0.42187 v -1.78125 q 0.79688,0.4375 1.64063,0.64844 0.84375,0.21093 1.78125,0.21093 1.51562,0 2.40625,-0.80468 0.89062,-0.80469 0.89062,-2.16407 0,-1.375 -0.89062,-2.17968 -0.89063,-0.80469 -2.40625,-0.80469 -0.71875,0 -1.42188,0.16406 -0.70312,0.16406 -1.45312,0.49219 z"
             id="path212"
             inkscape:connector-curvature="0" />
        </g>
        <!-- drawing style -->
      </g>
      <g
         transform="matrix(0.48622722,0,0,0.48622722,213.86441,27.081363)"
         id="g214"
         style="stroke-width:1;stroke-linecap:square;stroke-linejoin:miter;stroke-miterlimit:10;stroke-dasharray:none;stroke-dashoffset:0">
        <g
           id="g216"
           style="fill:none;stroke:#000000;stroke-linecap:butt;stroke-opacity:1">
          <path
             d="m 943.52889,334.82702 v 4"
             id="path218"
             inkscape:connector-curvature="0" />
        </g>
        <!-- drawing style -->
      </g>
      <g
         transform="matrix(0.48622722,0,0,0.48622722,213.86441,27.081363)"
         id="g220"
         style="stroke-width:1;stroke-linecap:square;stroke-linejoin:miter;stroke-miterlimit:10;stroke-dasharray:none;stroke-dashoffset:0">
        <g
           id="g222"
           style="fill:none;stroke:#000000;stroke-linecap:butt;stroke-opacity:1">
          <path
             d="M 0,334.82702 H 983"
             id="path224"
             inkscape:connector-curvature="0" />
        </g>
        <!-- drawing style -->
      </g>
      <g
         transform="matrix(0.48622722,0,0,0.48622722,213.86441,27.081363)"
         id="g226"
         style="stroke-width:1;stroke-linecap:square;stroke-linejoin:miter;stroke-miterlimit:10;stroke-dasharray:none;stroke-dashoffset:0">
        <g
           id="g228"
           style="fill:none;stroke:#000000;stroke-linecap:butt;stroke-opacity:1">
          <path
             d="m 984,335.32702 -6,-6.5"
             id="path230"
             inkscape:connector-curvature="0" />
        </g>
        <!-- drawing style -->
      </g>
      <g
         transform="matrix(0.48622722,0,0,0.48622722,213.86441,27.081363)"
         id="g232"
         style="stroke-width:1;stroke-linecap:square;stroke-linejoin:miter;stroke-miterlimit:10;stroke-dasharray:none;stroke-dashoffset:0">
        <g
           id="g234"
           style="fill:none;stroke:#000000;stroke-linecap:butt;stroke-opacity:1">
          <path
             d="m 984,334.32702 -6,6.5"
             id="path236"
             inkscape:connector-curvature="0" />
        </g>
        <!-- drawing style -->
      </g>
      <g
         transform="matrix(0.48622722,0,0,0.48622722,213.86441,27.081363)"
         id="g238"
         style="stroke-width:1;stroke-linecap:square;stroke-linejoin:miter;stroke-miterlimit:10;stroke-dasharray:none;stroke-dashoffset:0">
        <g
           id="g240"
           style="fill:#000000;fill-opacity:1;fill-rule:nonzero;stroke:none">
          <path
             d="m 43.875,686.34375 h 4.734375 v 1.45312 H 43.875 Z m 12.916992,-1.42188 q 1.28125,0.28125 2,1.14063 0.71875,0.85937 0.71875,2.125 0,1.9375 -1.335937,3 -1.335938,1.0625 -3.804688,1.0625 -0.828125,0 -1.703125,-0.16406 -0.875,-0.16407 -1.796875,-0.47657 v -1.71875 q 0.734375,0.4375 1.617188,0.65625 0.882812,0.21875 1.835937,0.21875 1.671875,0 2.546875,-0.66406 0.875,-0.66406 0.875,-1.91406 0,-1.15625 -0.8125,-1.8125 -0.8125,-0.65625 -2.265625,-0.65625 h -1.53125 V 684.25 h 1.59375 q 1.3125,0 2.007813,-0.52344 0.695312,-0.52344 0.695312,-1.50781 0,-1 -0.71875,-1.53906 -0.71875,-0.53907 -2.046875,-0.53907 -0.734375,0 -1.570312,0.15625 -0.835938,0.15625 -1.835938,0.48438 v -1.57813 q 1.015625,-0.28125 1.898438,-0.42187 0.882812,-0.14063 1.664062,-0.14063 2.015625,0 3.195313,0.92188 1.179687,0.92187 1.179687,2.48437 0,1.07813 -0.625,1.83594 -0.625,0.75781 -1.78125,1.03906 z"
             id="path242"
             inkscape:connector-curvature="0" />
        </g>
        <!-- drawing style -->
      </g>
      <g
         transform="matrix(0.48622722,0,0,0.48622722,213.86441,27.081363)"
         id="g244"
         style="stroke-width:1;stroke-linecap:square;stroke-linejoin:miter;stroke-miterlimit:10;stroke-dasharray:none;stroke-dashoffset:0">
        <g
           id="g246"
           style="fill:none;stroke:#000000;stroke-linecap:butt;stroke-opacity:1">
          <path
             d="m 65.047107,684.61973 h 4"
             id="path248"
             inkscape:connector-curvature="0" />
        </g>
        <!-- drawing style -->
      </g>
      <g
         transform="matrix(0.48622722,0,0,0.48622722,213.86441,27.081363)"
         id="g250"
         style="stroke-width:1;stroke-linecap:square;stroke-linejoin:miter;stroke-miterlimit:10;stroke-dasharray:none;stroke-dashoffset:0">
        <g
           id="g252"
           style="fill:#000000;fill-opacity:1;fill-rule:nonzero;stroke:none">
          <path
             d="m 25.875,628.34375 h 4.734375 v 1.45312 H 25.875 Z M 34.948242,632.5 h 6.203125 v 1.5 h -8.34375 v -1.5 q 1.015625,-1.04688 2.757813,-2.80469 1.742187,-1.75781 2.195312,-2.27344 0.859375,-0.95312 1.195313,-1.61718 0.335937,-0.66407 0.335937,-1.30469 0,-1.04688 -0.734375,-1.70313 -0.734375,-0.65625 -1.90625,-0.65625 -0.84375,0 -1.765625,0.28907 -0.921875,0.28906 -1.984375,0.86718 v -1.78125 q 1.078125,-0.4375 2.007813,-0.65625 0.929687,-0.21875 1.695312,-0.21875 2.046875,0 3.257813,1.01563 1.210937,1.01562 1.210937,2.73437 0,0.79688 -0.304687,1.52344 -0.304688,0.72656 -1.101563,1.71094 -0.21875,0.25 -1.398437,1.46875 -1.179688,1.21875 -3.320313,3.40625 z m 9.920899,-0.73438 h 1.859375 V 634 H 44.869141 Z M 50.606445,620.875 h 6.96875 v 1.5 h -5.34375 v 3.21875 q 0.390625,-0.14063 0.78125,-0.20313 0.390625,-0.0625 0.765625,-0.0625 2.203125,0 3.484375,1.20313 1.28125,1.20312 1.28125,3.26562 0,2.10938 -1.3125,3.28125 -1.3125,1.17188 -3.71875,1.17188 -0.828125,0 -1.6875,-0.14063 -0.859375,-0.14062 -1.765625,-0.42187 v -1.78125 q 0.796875,0.4375 1.640625,0.64844 0.84375,0.21093 1.78125,0.21093 1.515625,0 2.40625,-0.80468 0.890625,-0.80469 0.890625,-2.16407 0,-1.375 -0.890625,-2.17968 -0.890625,-0.80469 -2.40625,-0.80469 -0.71875,0 -1.421875,0.16406 -0.703125,0.16406 -1.453125,0.49219 z"
             id="path254"
             inkscape:connector-curvature="0" />
        </g>
        <!-- drawing style -->
      </g>
      <g
         transform="matrix(0.48622722,0,0,0.48622722,213.86441,27.081363)"
         id="g256"
         style="stroke-width:1;stroke-linecap:square;stroke-linejoin:miter;stroke-miterlimit:10;stroke-dasharray:none;stroke-dashoffset:0">
        <g
           id="g258"
           style="fill:none;stroke:#000000;stroke-linecap:butt;stroke-opacity:1">
          <path
             d="m 65.047107,626.32094 h 4"
             id="path260"
             inkscape:connector-curvature="0" />
        </g>
        <!-- drawing style -->
      </g>
      <g
         transform="matrix(0.48622722,0,0,0.48622722,213.86441,27.081363)"
         id="g262"
         style="stroke-width:1;stroke-linecap:square;stroke-linejoin:miter;stroke-miterlimit:10;stroke-dasharray:none;stroke-dashoffset:0">
        <g
           id="g264"
           style="fill:#000000;fill-opacity:1;fill-rule:nonzero;stroke:none">
          <path
             d="m 43.875,570.34375 h 4.734375 v 1.45312 H 43.875 Z M 52.948242,574.5 h 6.203125 v 1.5 h -8.34375 v -1.5 q 1.015625,-1.04688 2.757813,-2.80469 1.742187,-1.75781 2.195312,-2.27344 0.859375,-0.95312 1.195313,-1.61718 0.335937,-0.66407 0.335937,-1.30469 0,-1.04688 -0.734375,-1.70313 -0.734375,-0.65625 -1.90625,-0.65625 -0.84375,0 -1.765625,0.28907 -0.921875,0.28906 -1.984375,0.86718 v -1.78125 q 1.078125,-0.4375 2.007813,-0.65625 0.929687,-0.21875 1.695312,-0.21875 2.046875,0 3.257813,1.01563 1.210937,1.01562 1.210937,2.73437 0,0.79688 -0.304687,1.52344 -0.304688,0.72656 -1.101563,1.71094 -0.21875,0.25 -1.398437,1.46875 -1.179688,1.21875 -3.320313,3.40625 z"
             id="path266"
             inkscape:connector-curvature="0" />
        </g>
        <!-- drawing style -->
      </g>
      <g
         transform="matrix(0.48622722,0,0,0.48622722,213.86441,27.081363)"
         id="g268"
         style="stroke-width:1;stroke-linecap:square;stroke-linejoin:miter;stroke-miterlimit:10;stroke-dasharray:none;stroke-dashoffset:0">
        <g
           id="g270"
           style="fill:none;stroke:#000000;stroke-linecap:butt;stroke-opacity:1">
          <path
             d="m 65.047107,568.02216 h 4"
             id="path272"
             inkscape:connector-curvature="0" />
        </g>
        <!-- drawing style -->
      </g>
      <g
         transform="matrix(0.48622722,0,0,0.48622722,213.86441,27.081363)"
         id="g274"
         style="stroke-width:1;stroke-linecap:square;stroke-linejoin:miter;stroke-miterlimit:10;stroke-dasharray:none;stroke-dashoffset:0">
        <g
           id="g276"
           style="fill:#000000;fill-opacity:1;fill-rule:nonzero;stroke:none">
          <path
             d="m 25.875,511.34375 h 4.734375 v 1.45312 H 25.875 Z M 33.729492,515.5 h 2.90625 v -10 l -3.15625,0.625 v -1.60938 l 3.125,-0.64062 h 1.78125 V 515.5 h 2.90625 v 1.5 h -7.5625 z m 11.139649,-0.73438 h 1.859375 V 517 H 44.869141 Z M 50.606445,503.875 h 6.96875 v 1.5 h -5.34375 v 3.21875 q 0.390625,-0.14063 0.78125,-0.20313 0.390625,-0.0625 0.765625,-0.0625 2.203125,0 3.484375,1.20313 1.28125,1.20312 1.28125,3.26562 0,2.10938 -1.3125,3.28125 -1.3125,1.17188 -3.71875,1.17188 -0.828125,0 -1.6875,-0.14063 -0.859375,-0.14062 -1.765625,-0.42187 v -1.78125 q 0.796875,0.4375 1.640625,0.64844 0.84375,0.21093 1.78125,0.21093 1.515625,0 2.40625,-0.80468 0.890625,-0.80469 0.890625,-2.16407 0,-1.375 -0.890625,-2.17968 -0.890625,-0.80469 -2.40625,-0.80469 -0.71875,0 -1.421875,0.16406 -0.703125,0.16406 -1.453125,0.49219 z"
             id="path278"
             inkscape:connector-curvature="0" />
        </g>
        <!-- drawing style -->
      </g>
      <g
         transform="matrix(0.48622722,0,0,0.48622722,213.86441,27.081363)"
         id="g280"
         style="stroke-width:1;stroke-linecap:square;stroke-linejoin:miter;stroke-miterlimit:10;stroke-dasharray:none;stroke-dashoffset:0">
        <g
           id="g282"
           style="fill:none;stroke:#000000;stroke-linecap:butt;stroke-opacity:1">
          <path
             d="m 65.047107,509.72337 h 4"
             id="path284"
             inkscape:connector-curvature="0" />
        </g>
        <!-- drawing style -->
      </g>
      <g
         transform="matrix(0.48622722,0,0,0.48622722,213.86441,27.081363)"
         id="g286"
         style="stroke-width:1;stroke-linecap:square;stroke-linejoin:miter;stroke-miterlimit:10;stroke-dasharray:none;stroke-dashoffset:0">
        <g
           id="g288"
           style="fill:#000000;fill-opacity:1;fill-rule:nonzero;stroke:none">
          <path
             d="m 43.875,453.34375 h 4.734375 v 1.45312 H 43.875 Z M 51.729492,457.5 h 2.90625 v -10 l -3.15625,0.625 v -1.60938 l 3.125,-0.64062 h 1.78125 V 457.5 h 2.90625 v 1.5 h -7.5625 z"
             id="path290"
             inkscape:connector-curvature="0" />
        </g>
        <!-- drawing style -->
      </g>
      <g
         transform="matrix(0.48622722,0,0,0.48622722,213.86441,27.081363)"
         id="g292"
         style="stroke-width:1;stroke-linecap:square;stroke-linejoin:miter;stroke-miterlimit:10;stroke-dasharray:none;stroke-dashoffset:0">
        <g
           id="g294"
           style="fill:none;stroke:#000000;stroke-linecap:butt;stroke-opacity:1">
          <path
             d="m 65.047107,451.42459 h 4"
             id="path296"
             inkscape:connector-curvature="0" />
        </g>
        <!-- drawing style -->
      </g>
      <g
         transform="matrix(0.48622722,0,0,0.48622722,213.86441,27.081363)"
         id="g298"
         style="stroke-width:1;stroke-linecap:square;stroke-linejoin:miter;stroke-miterlimit:10;stroke-dasharray:none;stroke-dashoffset:0">
        <g
           id="g300"
           style="fill:#000000;fill-opacity:1;fill-rule:nonzero;stroke:none">
          <path
             d="m 25.875,395.34375 h 4.734375 v 1.45312 H 25.875 Z m 11.338867,-6.29688 q -1.375,0 -2.0625,1.35157 -0.6875,1.35156 -0.6875,4.05468 0,2.70313 0.6875,4.04688 0.6875,1.34375 2.0625,1.34375 1.390625,0 2.078125,-1.34375 0.6875,-1.34375 0.6875,-4.04688 0,-2.70312 -0.6875,-4.05468 -0.6875,-1.35157 -2.078125,-1.35157 z m 0,-1.40625 q 2.203125,0 3.367188,1.74219 1.164062,1.74219 1.164062,5.07031 0,3.3125 -1.164062,5.05469 -1.164063,1.74219 -3.367188,1.74219 -2.203125,0 -3.367187,-1.74219 -1.164063,-1.74219 -1.164063,-5.05469 0,-3.32812 1.164063,-5.07031 1.164062,-1.74219 3.367187,-1.74219 z m 7.655274,11.125 h 1.859375 V 401 H 44.869141 Z M 50.606445,387.875 h 6.96875 v 1.5 h -5.34375 v 3.21875 q 0.390625,-0.14063 0.78125,-0.20313 0.390625,-0.0625 0.765625,-0.0625 2.203125,0 3.484375,1.20313 1.28125,1.20312 1.28125,3.26562 0,2.10938 -1.3125,3.28125 -1.3125,1.17188 -3.71875,1.17188 -0.828125,0 -1.6875,-0.14063 -0.859375,-0.14062 -1.765625,-0.42187 v -1.78125 q 0.796875,0.4375 1.640625,0.64844 0.84375,0.21093 1.78125,0.21093 1.515625,0 2.40625,-0.80468 0.890625,-0.80469 0.890625,-2.16407 0,-1.375 -0.890625,-2.17968 -0.890625,-0.80469 -2.40625,-0.80469 -0.71875,0 -1.421875,0.16406 -0.703125,0.16406 -1.453125,0.49219 z"
             id="path302"
             inkscape:connector-curvature="0" />
        </g>
        <!-- drawing style -->
      </g>
      <g
         transform="matrix(0.48622722,0,0,0.48622722,213.86441,27.081363)"
         id="g304"
         style="stroke-width:1;stroke-linecap:square;stroke-linejoin:miter;stroke-miterlimit:10;stroke-dasharray:none;stroke-dashoffset:0">
        <g
           id="g306"
           style="fill:none;stroke:#000000;stroke-linecap:butt;stroke-opacity:1">
          <path
             d="m 65.047107,393.1258 h 4"
             id="path308"
             inkscape:connector-curvature="0" />
        </g>
        <!-- drawing style -->
      </g>
      <g
         transform="matrix(0.48622722,0,0,0.48622722,213.86441,27.081363)"
         id="g310"
         style="stroke-width:1;stroke-linecap:square;stroke-linejoin:miter;stroke-miterlimit:10;stroke-dasharray:none;stroke-dashoffset:0">
        <g
           id="g312"
           style="fill:#000000;fill-opacity:1;fill-rule:nonzero;stroke:none">
          <path
             d="m 54.71875,320.04687 q -1.375,0 -2.0625,1.35157 -0.6875,1.35156 -0.6875,4.05468 0,2.70313 0.6875,4.04688 0.6875,1.34375 2.0625,1.34375 1.390625,0 2.078125,-1.34375 0.6875,-1.34375 0.6875,-4.04688 0,-2.70312 -0.6875,-4.05468 -0.6875,-1.35157 -2.078125,-1.35157 z m 0,-1.40625 q 2.203125,0 3.367187,1.74219 1.164063,1.74219 1.164063,5.07031 0,3.3125 -1.164063,5.05469 -1.164062,1.74219 -3.367187,1.74219 -2.203125,0 -3.367188,-1.74219 -1.164062,-1.74219 -1.164062,-5.05469 0,-3.32812 1.164062,-5.07031 1.164063,-1.74219 3.367188,-1.74219 z"
             id="path314"
             inkscape:connector-curvature="0" />
        </g>
        <!-- drawing style -->
      </g>
      <g
         transform="matrix(0.48622722,0,0,0.48622722,213.86441,27.081363)"
         id="g316"
         style="stroke-width:1;stroke-linecap:square;stroke-linejoin:miter;stroke-miterlimit:10;stroke-dasharray:none;stroke-dashoffset:0">
        <g
           id="g318"
           style="fill:none;stroke:#000000;stroke-linecap:butt;stroke-opacity:1">
          <path
             d="m 65.047107,334.82702 h 4"
             id="path320"
             inkscape:connector-curvature="0" />
        </g>
        <!-- drawing style -->
      </g>
      <g
         transform="matrix(0.48622722,0,0,0.48622722,213.86441,27.081363)"
         id="g322"
         style="stroke-width:1;stroke-linecap:square;stroke-linejoin:miter;stroke-miterlimit:10;stroke-dasharray:none;stroke-dashoffset:0">
        <g
           id="g324"
           style="fill:#000000;fill-opacity:1;fill-rule:nonzero;stroke:none">
          <path
             d="m 37.71875,272.04687 q -1.375,0 -2.0625,1.35157 -0.6875,1.35156 -0.6875,4.05468 0,2.70313 0.6875,4.04688 0.6875,1.34375 2.0625,1.34375 1.390625,0 2.078125,-1.34375 0.6875,-1.34375 0.6875,-4.04688 0,-2.70312 -0.6875,-4.05468 -0.6875,-1.35157 -2.078125,-1.35157 z m 0,-1.40625 q 2.203125,0 3.367187,1.74219 1.164063,1.74219 1.164063,5.07031 0,3.3125 -1.164063,5.05469 -1.164062,1.74219 -3.367187,1.74219 -2.203125,0 -3.367188,-1.74219 -1.164062,-1.74219 -1.164062,-5.05469 0,-3.32812 1.164062,-5.07031 1.164063,-1.74219 3.367188,-1.74219 z m 7.655273,11.125 h 1.859375 V 284 H 45.374023 Z M 51.111328,270.875 h 6.96875 v 1.5 h -5.34375 v 3.21875 q 0.390625,-0.14063 0.78125,-0.20313 0.390625,-0.0625 0.765625,-0.0625 2.203125,0 3.484375,1.20313 1.28125,1.20312 1.28125,3.26562 0,2.10938 -1.3125,3.28125 -1.3125,1.17188 -3.71875,1.17188 -0.828125,0 -1.6875,-0.14063 -0.859375,-0.14062 -1.765625,-0.42187 v -1.78125 q 0.796875,0.4375 1.640625,0.64844 0.84375,0.21093 1.78125,0.21093 1.515625,0 2.40625,-0.80468 0.890625,-0.80469 0.890625,-2.16407 0,-1.375 -0.890625,-2.17968 -0.890625,-0.80469 -2.40625,-0.80469 -0.71875,0 -1.421875,0.16406 -0.703125,0.16406 -1.453125,0.49219 z"
             id="path326"
             inkscape:connector-curvature="0" />
        </g>
        <!-- drawing style -->
      </g>
      <g
         transform="matrix(0.48622722,0,0,0.48622722,213.86441,27.081363)"
         id="g328"
         style="stroke-width:1;stroke-linecap:square;stroke-linejoin:miter;stroke-miterlimit:10;stroke-dasharray:none;stroke-dashoffset:0">
        <g
           id="g330"
           style="fill:none;stroke:#000000;stroke-linecap:butt;stroke-opacity:1">
          <path
             d="m 65.047107,276.52823 h 4"
             id="path332"
             inkscape:connector-curvature="0" />
        </g>
        <!-- drawing style -->
      </g>
      <g
         transform="matrix(0.48622722,0,0,0.48622722,213.86441,27.081363)"
         id="g334"
         style="stroke-width:1;stroke-linecap:square;stroke-linejoin:miter;stroke-miterlimit:10;stroke-dasharray:none;stroke-dashoffset:0">
        <g
           id="g336"
           style="fill:#000000;fill-opacity:1;fill-rule:nonzero;stroke:none">
          <path
             d="m 51.234375,224.5 h 2.90625 v -10 l -3.15625,0.625 v -1.60938 l 3.125,-0.64062 h 1.78125 V 224.5 h 2.90625 v 1.5 h -7.5625 z"
             id="path338"
             inkscape:connector-curvature="0" />
        </g>
        <!-- drawing style -->
      </g>
      <g
         transform="matrix(0.48622722,0,0,0.48622722,213.86441,27.081363)"
         id="g340"
         style="stroke-width:1;stroke-linecap:square;stroke-linejoin:miter;stroke-miterlimit:10;stroke-dasharray:none;stroke-dashoffset:0">
        <g
           id="g342"
           style="fill:none;stroke:#000000;stroke-linecap:butt;stroke-opacity:1">
          <path
             d="m 65.047107,218.22944 h 4"
             id="path344"
             inkscape:connector-curvature="0" />
        </g>
        <!-- drawing style -->
      </g>
      <g
         transform="matrix(0.48622722,0,0,0.48622722,213.86441,27.081363)"
         id="g346"
         style="stroke-width:1;stroke-linecap:square;stroke-linejoin:miter;stroke-miterlimit:10;stroke-dasharray:none;stroke-dashoffset:0">
        <g
           id="g348"
           style="fill:#000000;fill-opacity:1;fill-rule:nonzero;stroke:none">
          <path
             d="m 34.234375,165.5 h 2.90625 v -10 l -3.15625,0.625 v -1.60938 l 3.125,-0.64062 h 1.78125 V 165.5 h 2.90625 v 1.5 h -7.5625 z m 11.139648,-0.73438 h 1.859375 V 167 H 45.374023 Z M 51.111328,153.875 h 6.96875 v 1.5 h -5.34375 v 3.21875 q 0.390625,-0.14063 0.78125,-0.20313 0.390625,-0.0625 0.765625,-0.0625 2.203125,0 3.484375,1.20313 1.28125,1.20312 1.28125,3.26562 0,2.10938 -1.3125,3.28125 -1.3125,1.17188 -3.71875,1.17188 -0.828125,0 -1.6875,-0.14063 -0.859375,-0.14062 -1.765625,-0.42187 v -1.78125 q 0.796875,0.4375 1.640625,0.64844 0.84375,0.21093 1.78125,0.21093 1.515625,0 2.40625,-0.80468 0.890625,-0.80469 0.890625,-2.16407 0,-1.375 -0.890625,-2.17968 -0.890625,-0.80469 -2.40625,-0.80469 -0.71875,0 -1.421875,0.16406 -0.703125,0.16406 -1.453125,0.49219 z"
             id="path350"
             inkscape:connector-curvature="0" />
        </g>
        <!-- drawing style -->
      </g>
      <g
         transform="matrix(0.48622722,0,0,0.48622722,213.86441,27.081363)"
         id="g352"
         style="stroke-width:1;stroke-linecap:square;stroke-linejoin:miter;stroke-miterlimit:10;stroke-dasharray:none;stroke-dashoffset:0">
        <g
           id="g354"
           style="fill:none;stroke:#000000;stroke-linecap:butt;stroke-opacity:1">
          <path
             d="m 65.047107,159.93066 h 4"
             id="path356"
             inkscape:connector-curvature="0" />
        </g>
        <!-- drawing style -->
      </g>
      <g
         transform="matrix(0.48622722,0,0,0.48622722,213.86441,27.081363)"
         id="g364"
         style="stroke-width:1;stroke-linecap:square;stroke-linejoin:miter;stroke-miterlimit:10;stroke-dasharray:none;stroke-dashoffset:0">
        <g
           id="g366"
           style="fill:none;stroke:#000000;stroke-linecap:butt;stroke-opacity:1">
          <path
             d="m 65.047107,101.63187 h 4"
             id="path368"
             inkscape:connector-curvature="0" />
        </g>
        <!-- drawing style -->
      </g>
      <g
         transform="matrix(0.48622722,0,0,0.48622722,213.86441,27.081363)"
         id="g370"
         style="stroke-width:1;stroke-linecap:square;stroke-linejoin:miter;stroke-miterlimit:10;stroke-dasharray:none;stroke-dashoffset:0">
        <g
           id="g372"
           style="fill:#000000;fill-opacity:1;fill-rule:nonzero;stroke:none">
          <path
             d="M 35.453125,49.5 H 41.65625 V 51 H 33.3125 V 49.5 Q 34.328125,48.453125 36.070312,46.695312 37.8125,44.9375 38.265625,44.421875 39.125,43.46875 39.460937,42.804687 39.796875,42.140625 39.796875,41.5 q 0,-1.046875 -0.734375,-1.703125 -0.734375,-0.65625 -1.90625,-0.65625 -0.84375,0 -1.765625,0.289062 -0.921875,0.289063 -1.984375,0.867188 v -1.78125 q 1.078125,-0.4375 2.007812,-0.65625 0.929688,-0.21875 1.695313,-0.21875 2.046875,0 3.257812,1.015625 1.210938,1.015625 1.210938,2.734375 0,0.796875 -0.304688,1.523437 -0.304687,0.726563 -1.101562,1.710938 -0.21875,0.25 -1.398438,1.46875 Q 37.59375,47.3125 35.453125,49.5 Z m 9.920898,-0.734375 h 1.859375 V 51 H 45.374023 Z M 51.111328,37.875 h 6.96875 v 1.5 h -5.34375 v 3.21875 q 0.390625,-0.140625 0.78125,-0.203125 0.390625,-0.0625 0.765625,-0.0625 2.203125,0 3.484375,1.203125 1.28125,1.203125 1.28125,3.265625 0,2.109375 -1.3125,3.28125 -1.3125,1.171875 -3.71875,1.171875 -0.828125,0 -1.6875,-0.140625 Q 51.470703,50.96875 50.564453,50.6875 v -1.78125 q 0.796875,0.4375 1.640625,0.648437 0.84375,0.210938 1.78125,0.210938 1.515625,0 2.40625,-0.804688 0.890625,-0.804687 0.890625,-2.164062 0,-1.375 -0.890625,-2.179688 -0.890625,-0.804687 -2.40625,-0.804687 -0.71875,0 -1.421875,0.164062 -0.703125,0.164063 -1.453125,0.492188 z"
             id="path374"
             inkscape:connector-curvature="0" />
        </g>
        <!-- drawing style -->
      </g>
      <g
         transform="matrix(0.48622722,0,0,0.48622722,213.86441,27.081363)"
         id="g376"
         style="stroke-width:1;stroke-linecap:square;stroke-linejoin:miter;stroke-miterlimit:10;stroke-dasharray:none;stroke-dashoffset:0">
        <g
           id="g378"
           style="fill:none;stroke:#000000;stroke-linecap:butt;stroke-opacity:1">
          <path
             d="m 65.047107,43.333086 h 4"
             id="path380"
             inkscape:connector-curvature="0" />
        </g>
        <!-- drawing style -->
      </g>
      <g
         transform="matrix(0.48622722,0,0,0.48622722,213.86441,27.081363)"
         id="g382"
         style="stroke-width:1;stroke-linecap:square;stroke-linejoin:miter;stroke-miterlimit:10;stroke-dasharray:none;stroke-dashoffset:0">
        <g
           id="g384"
           style="fill:none;stroke:#000000;stroke-linecap:butt;stroke-opacity:1">
          <path
             d="M 69.047107,2 V 696"
             id="path386"
             inkscape:connector-curvature="0" />
        </g>
        <!-- drawing style -->
      </g>
      <g
         transform="matrix(0.48622722,0,0,0.48622722,213.86441,27.081363)"
         id="g388"
         style="stroke-width:1;stroke-linecap:square;stroke-linejoin:miter;stroke-miterlimit:10;stroke-dasharray:none;stroke-dashoffset:0">
        <g
           id="g390"
           style="fill:none;stroke:#000000;stroke-linecap:butt;stroke-opacity:1">
          <path
             d="m 69.547107,1 -6.5,6"
             id="path392"
             inkscape:connector-curvature="0" />
        </g>
        <!-- drawing style -->
      </g>
      <g
         transform="matrix(0.48622722,0,0,0.48622722,213.86441,27.081363)"
         id="g394"
         style="stroke-width:1;stroke-linecap:square;stroke-linejoin:miter;stroke-miterlimit:10;stroke-dasharray:none;stroke-dashoffset:0">
        <g
           id="g396"
           style="fill:none;stroke:#000000;stroke-linecap:butt;stroke-opacity:1">
          <path
             d="m 68.547107,1 6.5,6"
             id="path398"
             inkscape:connector-curvature="0" />
        </g>
        <!-- drawing style -->
      </g>
      <g
         id="layer0"
         style="stroke-width:1;stroke-linecap:square;stroke-linejoin:miter;stroke-miterlimit:10;stroke-dasharray:none;stroke-dashoffset:0"
         transform="translate(213.86441,27.081363)">
        <g
           transform="scale(0.48622722)"
           id="g402">
          <g
             id="g404"
             style="fill:none;stroke:#000099;stroke-width:3.5;stroke-linecap:round;stroke-linejoin:round;stroke-opacity:1">
            <path
               d="m 0,492.78256 3.8476563,-7.24771 3.8476562,-7.50687 3.8476565,-7.75305 3.847656,-7.98596 3.847656,-8.20508 3.847656,-8.41015 3.847657,-8.60074 3.847656,-8.77655 3.847656,-8.93723 3.847656,-9.08261 3.847657,-9.21231 3.847656,-9.3262 3.847656,-9.42404 3.847656,-9.50571 3.847657,-9.57101 3.847656,-9.61985 3.847656,-9.65216 3.847656,-9.66788 3.847657,-9.66696 3.847656,-9.64944 3.847656,-9.6153 3.847656,-9.56466 3.847657,-9.49756 3.847656,-9.41413 3.847656,-9.31448 3.847654,-9.19888 3.84766,-9.06743 3.84766,-8.9204 3.84765,-8.75801 3.84766,-8.58058 3.84765,-8.38838 3.84766,-8.18178 3.84766,-7.9611 3.84765,-7.72675 3.84766,-7.47908 3.84765,-7.21858 3.84766,-6.94565 3.84766,-6.6608 3.84765,-6.36447 3.84766,-6.05722 3.84766,-5.73953 3.84765,-5.412 7.69531,-9.80472 7.69532,-8.39051 7.69531,-6.91862 7.69531,-5.39915 7.69531,-3.84259 3.84766,-1.32889 3.84766,-0.9307 7.69531,-0.66106 3.84766,0.27077 3.84765,0.67123 7.69531,2.5386 7.69532,4.11774 7.69531,5.66857 7.69531,7.18044 7.69531,8.64294 3.84766,4.85173 3.84766,5.19429 3.84765,5.52796 3.84766,5.85211 3.84766,6.16618 3.84765,6.46965 3.84766,6.76203 3.84765,7.04275 3.84766,7.31137 3.84766,7.56743 3.84765,7.81046 3.84766,8.04007 3.84766,8.25586 3.84765,8.45745 3.84766,8.6445 3.84765,8.81669 3.84766,8.9737 3.84766,9.11533 3.84765,9.24124 3.84766,9.35126 3.84766,9.44525 3.84765,9.52295 3.84766,9.58429 3.84765,9.62915 3.84766,9.65747 3.84766,9.66919 3.84765,9.66425 3.84766,9.64273 3.84766,9.60458 3.84765,9.54999 3.84766,9.47891 3.84765,9.39157 3.84766,9.28809 3.84766,9.16861 3.84765,9.03338 3.84766,8.88263 3.84766,8.71659 3.84765,8.53558 3.84766,8.33984 3.84765,8.12986 3.84766,7.90582 3.84766,7.66821 3.84765,7.41742 3.84766,7.15387 3.84766,6.87802 3.84765,6.59036 3.84766,6.29132 3.84765,5.98157 3.84766,5.66144 3.84766,5.33154 7.69531,9.63758 7.69531,8.21588 7.69531,6.73773 7.69532,5.2132 7.69531,3.65289 3.84766,1.23303 3.84765,0.83441 7.69531,0.46778 3.84766,-0.36744 3.84766,-0.76764 7.69531,-2.73016 7.69531,-4.30646 7.69531,-5.85315 7.69532,-7.35961 7.69531,-8.8155 3.84766,-4.93512 3.84765,-5.27563 3.84766,-5.60699 3.84765,-5.92884 3.84766,-6.24032 3.84766,-6.54123 3.84765,-6.83081 3.84766,-7.10865 3.84766,-7.37429 3.84765,-7.62726 3.84766,-7.86707 3.84765,-8.09338 3.84766,-8.30582 3.84766,-8.50387 3.84765,-8.68741 3.84766,-8.85596 3.84766,-9.00928 3.84765,-9.14712 3.84766,-9.26926 3.84765,-9.3754 3.84766,-9.46548 3.84766,-9.53925 3.84765,-9.59661 3.84766,-9.63752 3.84766,-9.6618 3.84765,-9.66953 3.84766,-9.66058 3.84765,-9.63504 3.84766,-9.59293 3.84766,-9.53433 3.84765,-9.45935 3.84766,-9.36807 3.84766,-9.26074 3.84765,-9.13742 3.84766,-8.99845 3.84765,-8.84396 3.84766,-8.67429 3.84766,-8.4897 3.84765,-8.29051 3.84766,-8.07707 3.84766,-7.84975 3.84765,-7.60892 3.84766,-7.35501 3.84765,-7.08845 3.84766,-6.80971 3.84766,-6.51927 3.84765,-6.21761 3.84766,-5.90524 3.84766,-5.58275 3.84765,-5.25065 7.69531,-9.46946 7.69532,-8.04043 7.69531,-6.55613 7.69531,-5.02675 7.69531,-3.46281 3.84766,-1.13707 3.84766,-0.73802 7.69531,-0.27444 3.84766,0.46402 3.84765,0.86404 7.69531,2.92146 7.69532,4.49475 7.69531,6.03715 7.69531,7.53807 7.69531,8.98713 3.84766,5.01804 3.84766,5.3564 3.84765,5.68551 3.84766,6.00489 3.84766,6.31392 3.84765,6.6121 3.84766,6.89891 3.84765,7.17386 3.84766,7.43648 3.84766,7.68629 3.84765,7.92292 3.84766,8.1459 3.84766,8.35489 3.84765,8.54951 3.84766,8.72944 3.84765,8.89433 3.84766,9.04396 3.84766,9.17801 3.84765,9.29632 3.84766,9.39862 3.84766,9.48475 3.84765,9.55459 3.84766,9.608 3.84765,9.6449 3.84766,9.66519 3.84766,9.66886 3.84765,9.65594 3.84766,9.62641 3.84766,9.58032 3.84765,9.51773 3.84766,9.43881 3.84765,9.34366 3.84766,9.23245 3.84766,9.10535 3.84765,8.96258 3.84766,8.80442"
               id="path406"
               inkscape:connector-curvature="0" />
          </g>
          <!-- drawing style -->
        </g>
        <!-- transform -->
        <g
           transform="scale(0.48622722)"
           id="g408">
          <g
             id="g410"
             style="fill:#000099;fill-opacity:1;fill-rule:nonzero;stroke:none">
            <path
               d="m 12.421875,484.79687 v 1.5 h -1.71875 q -0.96875,0 -1.34375,0.39063 -0.375,0.39062 -0.375,1.40625 v 0.96875 H 11.9375 v 1.39062 H 8.984375 V 500 h -1.8125 v -9.54688 h -1.71875 v -1.39062 h 1.71875 v -0.76563 q 0,-1.82812 0.8515625,-2.66406 Q 8.875,484.79687 10.71875,484.79687 Z"
               id="path412"
               inkscape:connector-curvature="0" />
          </g>
          <!-- drawing style -->
        </g>
        <!-- transform -->
      </g>
      <text
         xml:space="preserve"
         style="font-style:normal;font-weight:normal;line-height:0%;font-family:sans-serif;letter-spacing:0px;word-spacing:0px;fill:#000000;fill-opacity:1;stroke:none;stroke-width:1px;stroke-linecap:butt;stroke-linejoin:miter;stroke-miterlimit:10;stroke-dasharray:none;stroke-dashoffset:0;stroke-opacity:1"
         x="536.0177"
         y="203.44649"
         id="text4896"><tspan
           sodipodi:role="line"
           id="tspan4898"
           x="536.0177"
           y="203.44649"
           style="font-size:25px;line-height:1.25"></tspan></text>
    </g>
    <g
       transform="matrix(0.48622722,0,0,0.48622722,213.86441,27.081363)"
       id="g358"
       style="stroke-width:1;stroke-linecap:square;stroke-linejoin:miter;stroke-miterlimit:10;stroke-dasharray:none;stroke-dashoffset:0">
      <!-- drawing style -->
      <text
         xml:space="preserve"
         style="font-style:normal;font-weight:normal;line-height:0%;font-family:sans-serif;letter-spacing:0px;word-spacing:0px;fill:#000000;fill-opacity:1;stroke:none;stroke-width:1px;stroke-linecap:butt;stroke-linejoin:miter;stroke-opacity:1"
         x="-166.11742"
         y="148.59119"
         id="text4900"><tspan
           sodipodi:role="line"
           id="tspan4902"
           x="-166.11742"
           y="148.59119"
           style="font-size:35.9914px;line-height:1.25"></tspan></text>
      <text
         xml:space="preserve"
         style="font-style:normal;font-weight:normal;line-height:0%;font-family:sans-serif;letter-spacing:0px;word-spacing:0px;fill:#000000;fill-opacity:1;stroke:none;stroke-width:1px;stroke-linecap:butt;stroke-linejoin:miter;stroke-opacity:1"
         x="36.86377"
         y="94.681213"
         id="text4904"><tspan
           sodipodi:role="line"
           id="tspan4906"
           x="36.86377"
           y="94.681213"
           style="font-size:35.9914px;line-height:1.25">2</tspan></text>
      <text
         xml:space="preserve"
         style="font-style:normal;font-weight:normal;line-height:0%;font-family:sans-serif;letter-spacing:0px;word-spacing:0px;fill:#000000;fill-opacity:1;stroke:none;stroke-width:1px;stroke-linecap:butt;stroke-linejoin:miter;stroke-miterlimit:10;stroke-dasharray:none;stroke-dashoffset:0;stroke-opacity:1"
         x="657.51611"
         y="367.23584"
         id="text4904-7"><tspan
           sodipodi:role="line"
           id="tspan4906-5"
           x="657.51611"
           y="367.23584"
           style="font-size:35.9914px;line-height:1.25">1</tspan></text>
    </g>
  </g>
  <g
     id="misc"
     style="stroke-width:1;stroke-linecap:square;stroke-linejoin:miter;stroke-miterlimit:10;stroke-dasharray:none;stroke-dashoffset:0"
     transform="translate(66.704781,-22.789058)" />
  <metadata
     id="metadata418">
    <rdf:RDF>
      <cc:Work
         rdf:about="">
        <dc:format>image/svg+xml</dc:format>
        <dc:type
           rdf:resource="http://purl.org/dc/dcmitype/StillImage" />
        <dc:title></dc:title>
      </cc:Work>
    </rdf:RDF>
  </metadata>
  <defs
     id="defs416">
    <marker
       style="overflow:visible"
       id="marker2693"
       refX="0"
       refY="0"
       orient="auto"
       inkscape:stockid="Arrow1Mstart"
       inkscape:isstock="true">
      <path
         transform="matrix(0.4,0,0,0.4,4,0)"
         style="fill:#000000;fill-opacity:1;fill-rule:evenodd;stroke:#000000;stroke-width:1pt;stroke-opacity:1"
         d="M 0,0 5,-5 -12.5,0 5,5 Z"
         id="path2691" />
    </marker>
    <marker
       style="overflow:visible"
       id="marker2683"
       refX="0"
       refY="0"
       orient="auto"
       inkscape:stockid="Arrow1Mstart"
       inkscape:isstock="true">
      <path
         transform="matrix(0.4,0,0,0.4,4,0)"
         style="fill:#000000;fill-opacity:1;fill-rule:evenodd;stroke:#000000;stroke-width:1pt;stroke-opacity:1"
         d="M 0,0 5,-5 -12.5,0 5,5 Z"
         id="path2681" />
    </marker>
    <marker
       style="overflow:visible"
       id="marker2673"
       refX="0"
       refY="0"
       orient="auto"
       inkscape:stockid="Arrow1Mstart"
       inkscape:isstock="true">
      <path
         transform="matrix(0.4,0,0,0.4,4,0)"
         style="fill:#000000;fill-opacity:1;fill-rule:evenodd;stroke:#000000;stroke-width:1pt;stroke-opacity:1"
         d="M 0,0 5,-5 -12.5,0 5,5 Z"
         id="path2671" />
    </marker>
    <marker
       style="overflow:visible"
       id="marker2663"
       refX="0"
       refY="0"
       orient="auto"
       inkscape:stockid="Arrow1Mstart"
       inkscape:isstock="true">
      <path
         transform="matrix(0.4,0,0,0.4,4,0)"
         style="fill:#000000;fill-opacity:1;fill-rule:evenodd;stroke:#000000;stroke-width:1pt;stroke-opacity:1"
         d="M 0,0 5,-5 -12.5,0 5,5 Z"
         id="path2661" />
    </marker>
    <marker
       style="overflow:visible"
       id="marker2653"
       refX="0"
       refY="0"
       orient="auto"
       inkscape:stockid="Arrow1Mstart"
       inkscape:isstock="true">
      <path
         transform="matrix(0.4,0,0,0.4,4,0)"
         style="fill:#000000;fill-opacity:1;fill-rule:evenodd;stroke:#000000;stroke-width:1pt;stroke-opacity:1"
         d="M 0,0 5,-5 -12.5,0 5,5 Z"
         id="path2651" />
    </marker>
    <marker
       style="overflow:visible"
       id="marker2643"
       refX="0"
       refY="0"
       orient="auto"
       inkscape:stockid="Arrow1Mstart"
       inkscape:isstock="true">
      <path
         transform="matrix(0.4,0,0,0.4,4,0)"
         style="fill:#000000;fill-opacity:1;fill-rule:evenodd;stroke:#000000;stroke-width:1pt;stroke-opacity:1"
         d="M 0,0 5,-5 -12.5,0 5,5 Z"
         id="path2641" />
    </marker>
    <marker
       style="overflow:visible"
       id="marker2633"
       refX="0"
       refY="0"
       orient="auto"
       inkscape:stockid="Arrow1Mstart"
       inkscape:isstock="true">
      <path
         transform="matrix(0.4,0,0,0.4,4,0)"
         style="fill:#000000;fill-opacity:1;fill-rule:evenodd;stroke:#000000;stroke-width:1pt;stroke-opacity:1"
         d="M 0,0 5,-5 -12.5,0 5,5 Z"
         id="path2631" />
    </marker>
    <marker
       style="overflow:visible"
       id="marker2623"
       refX="0"
       refY="0"
       orient="auto"
       inkscape:stockid="Arrow1Mstart"
       inkscape:isstock="true">
      <path
         transform="matrix(0.4,0,0,0.4,4,0)"
         style="fill:#000000;fill-opacity:1;fill-rule:evenodd;stroke:#000000;stroke-width:1pt;stroke-opacity:1"
         d="M 0,0 5,-5 -12.5,0 5,5 Z"
         id="path2621" />
    </marker>
    <marker
       style="overflow:visible"
       id="marker2469"
       refX="0"
       refY="0"
       orient="auto"
       inkscape:stockid="Arrow1Lend"
       inkscape:isstock="true">
      <path
         transform="matrix(-0.8,0,0,-0.8,-10,0)"
         style="fill:#000000;fill-opacity:1;fill-rule:evenodd;stroke:#000000;stroke-width:1pt;stroke-opacity:1"
         d="M 0,0 5,-5 -12.5,0 5,5 Z"
         id="path2467" />
    </marker>
    <marker
       style="overflow:visible"
       id="marker2459"
       refX="0"
       refY="0"
       orient="auto"
       inkscape:stockid="Arrow1Lend"
       inkscape:isstock="true">
      <path
         transform="matrix(-0.8,0,0,-0.8,-10,0)"
         style="fill:#000000;fill-opacity:1;fill-rule:evenodd;stroke:#000000;stroke-width:1pt;stroke-opacity:1"
         d="M 0,0 5,-5 -12.5,0 5,5 Z"
         id="path2457" />
    </marker>
    <marker
       style="overflow:visible"
       id="marker2449"
       refX="0"
       refY="0"
       orient="auto"
       inkscape:stockid="Arrow1Lend"
       inkscape:isstock="true">
      <path
         transform="matrix(-0.8,0,0,-0.8,-10,0)"
         style="fill:#000000;fill-opacity:1;fill-rule:evenodd;stroke:#000000;stroke-width:1pt;stroke-opacity:1"
         d="M 0,0 5,-5 -12.5,0 5,5 Z"
         id="path2447" />
    </marker>
    <marker
       style="overflow:visible"
       id="marker2439"
       refX="0"
       refY="0"
       orient="auto"
       inkscape:stockid="Arrow1Lend"
       inkscape:isstock="true">
      <path
         transform="matrix(-0.8,0,0,-0.8,-10,0)"
         style="fill:#000000;fill-opacity:1;fill-rule:evenodd;stroke:#000000;stroke-width:1pt;stroke-opacity:1"
         d="M 0,0 5,-5 -12.5,0 5,5 Z"
         id="path2437" />
    </marker>
    <marker
       style="overflow:visible"
       id="marker2429"
       refX="0"
       refY="0"
       orient="auto"
       inkscape:stockid="Arrow1Lend"
       inkscape:isstock="true">
      <path
         transform="matrix(-0.8,0,0,-0.8,-10,0)"
         style="fill:#000000;fill-opacity:1;fill-rule:evenodd;stroke:#000000;stroke-width:1pt;stroke-opacity:1"
         d="M 0,0 5,-5 -12.5,0 5,5 Z"
         id="path2427" />
    </marker>
    <marker
       style="overflow:visible"
       id="marker2419"
       refX="0"
       refY="0"
       orient="auto"
       inkscape:stockid="Arrow1Lend"
       inkscape:isstock="true">
      <path
         transform="matrix(-0.8,0,0,-0.8,-10,0)"
         style="fill:#000000;fill-opacity:1;fill-rule:evenodd;stroke:#000000;stroke-width:1pt;stroke-opacity:1"
         d="M 0,0 5,-5 -12.5,0 5,5 Z"
         id="path2417" />
    </marker>
    <marker
       style="overflow:visible"
       id="marker2409"
       refX="0"
       refY="0"
       orient="auto"
       inkscape:stockid="Arrow1Lend"
       inkscape:isstock="true">
      <path
         transform="matrix(-0.8,0,0,-0.8,-10,0)"
         style="fill:#000000;fill-opacity:1;fill-rule:evenodd;stroke:#000000;stroke-width:1pt;stroke-opacity:1"
         d="M 0,0 5,-5 -12.5,0 5,5 Z"
         id="path2407" />
    </marker>
    <marker
       style="overflow:visible"
       id="marker2399"
       refX="0"
       refY="0"
       orient="auto"
       inkscape:stockid="Arrow1Lend"
       inkscape:isstock="true">
      <path
         transform="matrix(-0.8,0,0,-0.8,-10,0)"
         style="fill:#000000;fill-opacity:1;fill-rule:evenodd;stroke:#000000;stroke-width:1pt;stroke-opacity:1"
         d="M 0,0 5,-5 -12.5,0 5,5 Z"
         id="path2397" />
    </marker>
    <marker
       style="overflow:visible"
       id="marker2151"
       refX="0"
       refY="0"
       orient="auto"
       inkscape:stockid="Arrow1Lend"
       inkscape:isstock="true"
       inkscape:collect="always">
      <path
         transform="matrix(-0.8,0,0,-0.8,-10,0)"
         style="fill:#000000;fill-opacity:1;fill-rule:evenodd;stroke:#000000;stroke-width:1pt;stroke-opacity:1"
         d="M 0,0 5,-5 -12.5,0 5,5 Z"
         id="path1891" />
    </marker>
    <marker
       inkscape:stockid="Arrow1Lstart"
       orient="auto"
       refY="0"
       refX="0"
       id="Arrow1Lstart"
       style="overflow:visible"
       inkscape:isstock="true">
      <path
         id="path4582"
         d="M 0,0 5,-5 -12.5,0 5,5 Z"
         style="fill:#000000;fill-opacity:1;fill-rule:evenodd;stroke:#000000;stroke-width:1pt;stroke-opacity:1"
         transform="matrix(0.8,0,0,0.8,10,0)"
         inkscape:connector-curvature="0" />
    </marker>
    <marker
       inkscape:stockid="Arrow1Lend"
       orient="auto"
       refY="0"
       refX="0"
       id="Arrow1Lend"
       style="overflow:visible"
       inkscape:isstock="true">
      <path
         id="path4585"
         d="M 0,0 5,-5 -12.5,0 5,5 Z"
         style="fill:#000000;fill-opacity:1;fill-rule:evenodd;stroke:#000000;stroke-width:1pt;stroke-opacity:1"
         transform="matrix(-0.8,0,0,-0.8,-10,0)"
         inkscape:connector-curvature="0" />
    </marker>
  </defs>
  <sodipodi:namedview
     pagecolor="#ffffff"
     bordercolor="#666666"
     borderopacity="1"
     objecttolerance="10"
     gridtolerance="10"
     guidetolerance="10"
     inkscape:pageopacity="0"
     inkscape:pageshadow="2"
     inkscape:window-width="1680"
     inkscape:window-height="987"
     id="namedview414"
     showgrid="false"
     fit-margin-top="10"
     fit-margin-left="10"
     fit-margin-right="10"
     fit-margin-bottom="10"
     units="mm"
     inkscape:document-units="mm"
     inkscape:zoom="1.4430815"
     inkscape:cx="332.66958"
     inkscape:cy="221.52441"
     inkscape:window-x="-8"
     inkscape:window-y="-8"
     inkscape:window-maximized="1"
     inkscape:current-layer="svg2"
     inkscape:document-rotation="0" />
  <desc
     id="desc6">Creator: FreeHEP Graphics2D Driver Producer: geogebra.export.SVGExtensions Revision: 12753  Source:  Date: Dienstag, 14. August 2018 20:58 Uhr MESZ</desc>
  <!-- default stroke -->
  <rect
     style="fill:#cccccc;stroke:#000000;stroke-width:0.437684"
     id="rect1045"
     width="91.452477"
     height="91.452477"
     x="196.25533"
     y="89.553986" />
  <path
     style="fill:none;stroke:#000000;stroke-width:0.938976;stroke-linecap:butt;stroke-linejoin:miter;stroke-miterlimit:4;stroke-dasharray:none;stroke-opacity:1;marker-end:url(#marker2151)"
     d="M 356.3131,135.71624 H 287.63684"
     id="path1049" />
  <text
     xml:space="preserve"
     style="font-style:normal;font-weight:normal;font-size:22.5px;line-height:1.25;font-family:sans-serif;letter-spacing:0px;word-spacing:0px;fill:#000000;fill-opacity:1;stroke:none;stroke-width:0.9375"
     x="223.09499"
     y="142.14748"
     id="text2179"><tspan
       sodipodi:role="line"
       x="223.09499"
       y="142.14748"
       style="stroke-width:0.9375"
       id="tspan2181">A/D</tspan></text>
  <path
     style="fill:none;stroke:#000000;stroke-width:0.9375px;stroke-linecap:butt;stroke-linejoin:miter;stroke-opacity:1;marker-start:url(#marker2623)"
     d="m 145.69061,110.83509 h 50.30133"
     id="path2185" />
  <path
     style="fill:none;stroke:#000000;stroke-width:0.9375px;stroke-linecap:butt;stroke-linejoin:miter;stroke-opacity:1;marker-start:url(#marker2633)"
     d="m 145.69061,101.46009 h 50.30133"
     id="path2189" />
  <path
     style="fill:none;stroke:#000000;stroke-width:0.9375px;stroke-linecap:butt;stroke-linejoin:miter;stroke-opacity:1;marker-start:url(#marker2643)"
     d="m 145.69061,120.21009 h 50.30133"
     id="path2191" />
  <path
     style="fill:none;stroke:#000000;stroke-width:0.9375px;stroke-linecap:butt;stroke-linejoin:miter;stroke-opacity:1;marker-start:url(#marker2653)"
     d="m 145.69061,129.58509 h 50.30133"
     id="path2193" />
  <path
     style="fill:none;stroke:#000000;stroke-width:0.9375px;stroke-linecap:butt;stroke-linejoin:miter;stroke-opacity:1;marker-start:url(#marker2663)"
     d="m 145.69061,138.96009 h 50.30133"
     id="path2195" />
  <path
     style="fill:none;stroke:#000000;stroke-width:0.9375px;stroke-linecap:butt;stroke-linejoin:miter;stroke-opacity:1;marker-start:url(#marker2673)"
     d="m 145.69061,148.33509 h 50.30133"
     id="path2197" />
  <path
     style="fill:none;stroke:#000000;stroke-width:0.9375px;stroke-linecap:butt;stroke-linejoin:miter;stroke-opacity:1;marker-start:url(#marker2683)"
     d="m 145.69061,157.71009 h 50.30133"
     id="path2199" />
  <path
     style="fill:none;stroke:#000000;stroke-width:0.9375px;stroke-linecap:butt;stroke-linejoin:miter;stroke-opacity:1;marker-start:url(#marker2693)"
     d="m 145.69061,167.08509 h 50.30133"
     id="path2201" />
  <rect
     style="fill:#cccccc;stroke:#000000;stroke-width:0.218879"
     id="rect2869"
     width="45.73399"
     height="45.73399"
     x="219.11458"
     y="236.16324" />
  <path
     style="fill:none;stroke:#000000;stroke-width:0.9375px;stroke-linecap:butt;stroke-linejoin:miter;stroke-opacity:1;marker-end:url(#marker2469)"
     d="M 241.98157,235.65137 V 181.73031"
     id="path2985" />
  <text
     xml:space="preserve"
     style="font-style:normal;font-weight:normal;font-size:22.5px;line-height:1.25;font-family:sans-serif;letter-spacing:0px;word-spacing:0px;fill:#000000;fill-opacity:1;stroke:none;stroke-width:0.9375"
     x="191.95842"
     y="303.53995"
     id="text2997"><tspan
       sodipodi:role="line"
       id="tspan2995"
       x="191.95842"
       y="303.53995"
       style="stroke-width:0.9375">Taktsignal</tspan></text>
  <text
     xml:space="preserve"
     style="font-style:normal;font-weight:normal;font-size:22.5px;line-height:1.25;font-family:sans-serif;text-align:center;letter-spacing:0px;word-spacing:0px;text-anchor:middle;fill:#000000;fill-opacity:1;stroke:none;stroke-width:0.9375"
     x="84.250816"
     y="128.78371"
     id="text3001"><tspan
       sodipodi:role="line"
       id="tspan2999"
       x="84.250816"
       y="128.78371"
       style="text-align:center;text-anchor:middle;stroke-width:0.9375">digitaler</tspan><tspan
       sodipodi:role="line"
       x="84.250816"
       y="156.90871"
       style="text-align:center;text-anchor:middle;stroke-width:0.9375"
       id="tspan3003">Ausgang</tspan></text>
  <text
     xml:space="preserve"
     style="font-style:normal;font-weight:normal;font-size:22.5px;line-height:1.25;font-family:sans-serif;text-align:center;letter-spacing:0px;word-spacing:0px;text-anchor:middle;fill:#000000;fill-opacity:1;stroke:none;stroke-width:0.9375"
     x="321.74661"
     y="52.527794"
     id="text3009"><tspan
       sodipodi:role="line"
       id="tspan3005"
       x="321.74661"
       y="52.527794"
       style="text-align:center;text-anchor:middle;stroke-width:0.9375">analoger</tspan><tspan
       sodipodi:role="line"
       x="321.74661"
       y="80.652802"
       style="text-align:center;text-anchor:middle;stroke-width:0.9375"
       id="tspan3007">Eingang</tspan></text>
</svg>
